<?xml version="1.0" encoding="UTF-8"?>
<svg xmlns="http://www.w3.org/2000/svg" viewBox="0 0 64 64" role="img" aria-label="Meikku revise icon">
  <title>Meikku revise icon</title>
  <polyline points="28.87,49.73 25.84,48.91 23.0,47.59 20.43,45.79 18.21,43.57 16.41,41.0 15.09,38.16 14.27,35.13 14.0,32.0 14.27,28.87 15.09,25.84 16.41,23.0 18.21,20.43 20.43,18.21 23.0,16.41 25.84,15.09 28.87,14.27 32.0,14.0 35.13,14.27 38.16,15.09 41.0,16.41 43.57,18.21 45.79,20.43" stroke="currentColor" stroke-width="5" stroke-linecap="round" stroke-linejoin="round" fill="none"/>
  <polyline points="29,15 38,12" stroke="currentColor" stroke-width="5" stroke-linecap="round" stroke-linejoin="round" fill="none"/>
  <polyline points="29,15 32,24" stroke="currentColor" stroke-width="5" stroke-linecap="round" stroke-linejoin="round" fill="none"/>
  <polyline points="35.13,14.27 38.16,15.09 41.0,16.41 43.57,18.21 45.79,20.43 47.59,23.0 48.91,25.84 49.73,28.87 50.0,32.0 49.73,35.13 48.91,38.16 47.59,41.0 45.79,43.57 43.57,45.79 41.0,47.59 38.16,48.91 35.13,49.73 32.0,50.0 28.87,49.73 25.84,48.91 23.0,47.59 20.43,45.79 18.21,43.57" stroke="currentColor" stroke-width="5" stroke-linecap="round" stroke-linejoin="round" fill="none"/>
  <polyline points="35,49 26,52" stroke="currentColor" stroke-width="5" stroke-linecap="round" stroke-linejoin="round" fill="none"/>
  <polyline points="35,49 32,40" stroke="currentColor" stroke-width="5" stroke-linecap="round" stroke-linejoin="round" fill="none"/>
</svg>
