<svg xmlns="http://www.w3.org/2000/svg" viewBox="0 0 240 640"><path d="M60 40L20 80" stroke="#232322" stroke-width="9" stroke-linecap="round"/><path d="M60 40c8-8 22-8 26 2s-6 20-16 18-14-12-10-20z" fill="none" stroke="#232322" stroke-width="5"/><circle cx="70" cy="180" r="34" fill="#EBEBE7" stroke="#232322" stroke-width="5"/><path d="M70 180c0-5 6-6 9-2s1 10-5 12-15-2-17-10 4-18 13-20 21 5 23 16" fill="none" stroke="#232322" stroke-width="4" stroke-linecap="round"/><path d="M30 320c-4-14 6-28 22-30s30 6 28 18-16 10-26 16-18 6-24-4z" fill="#D8D8D3" stroke="#232322" stroke-width="5" stroke-linejoin="round"/><path d="M40 440L90 490" stroke="#232322" stroke-width="8" stroke-linecap="round"/><rect x="52" y="452" width="18" height="9" transform="rotate(45 61 456)" fill="#1052CC" stroke="#232322" stroke-width="4"/><circle cx="60" cy="580" r="26" fill="#F7C600" stroke="#232322" stroke-width="5"/><g stroke="#232322" stroke-width="4" stroke-linecap="round"><path d="M60 566v9"/><path d="M49 570l6 7"/><path d="M71 570l-6 7"/></g></svg>
